<?xml version="1.0" encoding="UTF-8" standalone="no"?>
<svg width="28px" height="28px" viewBox="0 0 28 28" version="1.1" xmlns="http://www.w3.org/2000/svg" xmlns:xlink="http://www.w3.org/1999/xlink" xmlns:sketch="http://www.bohemiancoding.com/sketch/ns">
    <!-- Generator: Sketch 3.2.2 (9983) - http://www.bohemiancoding.com/sketch -->
    <title>bridge-icon</title>
    <desc>Created with Sketch.</desc>
    <defs></defs>
    <g id="Page-1" stroke="none" stroke-width="1" fill="none" fill-rule="evenodd" sketch:type="MSPage">
        <g id="Artboard-3" sketch:type="MSArtboardGroup" transform="translate(-171.000000, -227.000000)">
            <g id="bridge-icon" sketch:type="MSLayerGroup" transform="translate(171.000000, 227.000000)">
                <path d="M14,28 C21.7319865,28 28,21.7319865 28,14 C28,6.2680135 21.7319865,0 14,0 C6.2680135,0 0,6.2680135 0,14 C0,21.7319865 6.2680135,28 14,28 Z" id="Oval" fill="#788B94" sketch:type="MSShapeGroup"></path>
                <path d="M11.078,9.872 L14.2,9.872 C14.6760024,9.872 15.116998,9.90699965 15.523,9.977 C15.929002,10.0470004 16.2836651,10.1706658 16.587,10.348 C16.8903348,10.5253342 17.1283325,10.7586652 17.301,11.048 C17.4736675,11.3373348 17.56,11.7013311 17.56,12.14 C17.56,12.3453344 17.529667,12.5506656 17.469,12.756 C17.408333,12.9613344 17.3173339,13.1526658 17.196,13.33 C17.0746661,13.5073342 16.916001,13.6659993 16.72,13.806 C16.523999,13.9460007 16.2953346,14.0486663 16.034,14.114 L16.034,14.17 C16.6873366,14.2913339 17.179665,14.5246649 17.511,14.87 C17.842335,15.2153351 18.008,15.6959969 18.008,16.312 C18.008,16.778669 17.9170009,17.1799983 17.735,17.516 C17.5529991,17.8520017 17.3010016,18.1296656 16.979,18.349 C16.6569984,18.5683344 16.2813355,18.7316661 15.852,18.839 C15.4226645,18.9463339 14.9606691,19 14.466,19 L11.078,19 L11.078,9.872 Z M14.102,13.554 C14.6060025,13.554 14.9723322,13.4536677 15.201,13.253 C15.4296678,13.0523323 15.544,12.7793351 15.544,12.434 C15.544,12.0886649 15.4273345,11.8413341 15.194,11.692 C14.9606655,11.5426659 14.6013358,11.468 14.116,11.468 L13.136,11.468 L13.136,13.554 L14.102,13.554 Z M14.298,17.404 C15.427339,17.404 15.992,16.9886708 15.992,16.158 C15.992,15.7566647 15.8520014,15.4650009 15.572,15.283 C15.2919986,15.1009991 14.8673362,15.01 14.298,15.01 L13.136,15.01 L13.136,17.404 L14.298,17.404 Z" id="Letter" fill="#FFFFFF" sketch:type="MSShapeGroup"></path>
            </g>
        </g>
    </g>
</svg>