<?xml version="1.0" encoding="UTF-8" standalone="no"?>
<svg width="28px" height="28px" viewBox="0 0 28 28" version="1.1" xmlns="http://www.w3.org/2000/svg" xmlns:xlink="http://www.w3.org/1999/xlink" xmlns:sketch="http://www.bohemiancoding.com/sketch/ns">
    <!-- Generator: Sketch 3.2.2 (9983) - http://www.bohemiancoding.com/sketch -->
    <title>master-icon</title>
    <desc>Created with Sketch.</desc>
    <defs></defs>
    <g id="Page-1" stroke="none" stroke-width="1" fill="none" fill-rule="evenodd" sketch:type="MSPage">
        <g id="Artboard-3" sketch:type="MSArtboardGroup" transform="translate(-111.000000, -227.000000)">
            <g id="master-icon" sketch:type="MSLayerGroup" transform="translate(111.000000, 227.000000)">
                <path d="M14,28 C21.7319865,28 28,21.7319865 28,14 C28,6.2680135 21.7319865,0 14,0 C6.2680135,0 0,6.2680135 0,14 C0,21.7319865 6.2680135,28 14,28 Z" id="Oval" fill="#788B94" sketch:type="MSShapeGroup"></path>
                <path d="M10.078,9.872 L12.262,9.872 L13.788,13.974 L14.334,15.57 L14.39,15.57 L14.936,13.974 L16.42,9.872 L18.59,9.872 L18.59,19 L16.672,19 L16.672,15.654 C16.672,15.4299989 16.6813332,15.182668 16.7,14.912 C16.7186668,14.641332 16.7419999,14.3683347 16.77,14.093 C16.7980001,13.8176653 16.8259999,13.5470013 16.854,13.281 C16.8820001,13.0149987 16.9099999,12.7700011 16.938,12.546 L16.882,12.546 L16.126,14.66 L14.726,18.202 L13.9,18.202 L12.5,14.66 L11.772,12.546 L11.716,12.546 C11.7440001,12.7700011 11.7719999,13.0149987 11.8,13.281 C11.8280001,13.5470013 11.8536665,13.8176653 11.877,14.093 C11.9003334,14.3683347 11.9213332,14.641332 11.94,14.912 C11.9586668,15.182668 11.968,15.4299989 11.968,15.654 L11.968,19 L10.078,19 L10.078,9.872 Z" id="Letter" fill="#FFFFFF" sketch:type="MSShapeGroup"></path>
            </g>
        </g>
    </g>
</svg>