<?xml version="1.0" encoding="UTF-8" standalone="no"?>
<svg width="28px" height="28px" viewBox="0 0 28 28" version="1.1" xmlns="http://www.w3.org/2000/svg" xmlns:xlink="http://www.w3.org/1999/xlink" xmlns:sketch="http://www.bohemiancoding.com/sketch/ns">
    <!-- Generator: Sketch 3.2.2 (9983) - http://www.bohemiancoding.com/sketch -->
    <title>standalone-icon</title>
    <desc>Created with Sketch.</desc>
    <defs></defs>
    <g id="Page-1" stroke="none" stroke-width="1" fill="none" fill-rule="evenodd" sketch:type="MSPage">
        <g id="Artboard-3" sketch:type="MSArtboardGroup" transform="translate(-81.000000, -227.000000)">
            <g id="standalone-icon" sketch:type="MSLayerGroup" transform="translate(81.000000, 227.000000)">
                <path d="M14,28 C21.7319865,28 28,21.7319865 28,14 C28,6.2680135 21.7319865,0 14,0 C6.2680135,0 0,6.2680135 0,14 C0,21.7319865 6.2680135,28 14,28 Z" id="Oval" fill="#788B94" sketch:type="MSShapeGroup"></path>
                <path d="M11.666,16.438 C11.9926683,16.7180014 12.3543313,16.9466658 12.751,17.124 C13.1476686,17.3013342 13.5373314,17.39 13.92,17.39 C14.3493355,17.39 14.6689989,17.3106675 14.879,17.152 C15.089001,16.9933325 15.194,16.778668 15.194,16.508 C15.194,16.3679993 15.163667,16.2466672 15.103,16.144 C15.042333,16.0413328 14.9536672,15.9503337 14.837,15.871 C14.7203327,15.7916663 14.5803341,15.7170004 14.417,15.647 C14.2536658,15.5769997 14.074001,15.5000004 13.878,15.416 L12.688,14.912 C12.4546655,14.8186662 12.2283344,14.6973341 12.009,14.548 C11.7896656,14.3986659 11.5936675,14.2236677 11.421,14.023 C11.2483325,13.8223323 11.1106672,13.5890013 11.008,13.323 C10.9053328,13.0569987 10.854,12.7560017 10.854,12.42 C10.854,12.0466648 10.9333325,11.694335 11.092,11.363 C11.2506675,11.031665 11.4746652,10.7423346 11.764,10.495 C12.0533348,10.2476654 12.3963313,10.0540007 12.793,9.914 C13.1896686,9.7739993 13.6259976,9.704 14.102,9.704 C14.6340027,9.704 15.1589974,9.80666564 15.677,10.012 C16.1950026,10.2173344 16.649998,10.515998 17.042,10.908 L15.992,12.21 C15.6933318,11.9766655 15.3946682,11.7970006 15.096,11.671 C14.7973318,11.5449994 14.4660018,11.482 14.102,11.482 C13.7473316,11.482 13.465001,11.5543326 13.255,11.699 C13.0449989,11.8436674 12.94,12.0466654 12.94,12.308 C12.94,12.4480007 12.9749996,12.5669995 13.045,12.665 C13.1150003,12.7630005 13.2129994,12.8516663 13.339,12.931 C13.4650006,13.0103337 13.6119992,13.0849997 13.78,13.155 C13.9480008,13.2250004 14.129999,13.3019996 14.326,13.386 L15.502,13.862 C16.0620028,14.0860011 16.5029984,14.393998 16.825,14.786 C17.1470016,15.178002 17.308,15.6959968 17.308,16.34 C17.308,16.7226686 17.2310008,17.0843316 17.077,17.425 C16.9229992,17.7656684 16.6990015,18.0643321 16.405,18.321 C16.1109985,18.577668 15.7493355,18.7829992 15.32,18.937 C14.8906645,19.0910008 14.405336,19.168 13.864,19.168 C13.2666637,19.168 12.6716696,19.0583344 12.079,18.839 C11.4863304,18.6196656 10.956669,18.2906689 10.49,17.852 L11.666,16.438 Z" id="Letter" fill="#FFFFFF" sketch:type="MSShapeGroup"></path>
            </g>
        </g>
    </g>
</svg>